<?xml version="1.0" encoding="utf-8"?>
<!-- Generator: Adobe Illustrator 28.2.0, SVG Export Plug-In . SVG Version: 6.00 Build 0)  -->
<svg version="1.1" id="Layer_1" xmlns="http://www.w3.org/2000/svg" xmlns:xlink="http://www.w3.org/1999/xlink" x="0px" y="0px"
	 viewBox="0 0 1080 1080" style="enable-background:new 0 0 1080 1080;" xml:space="preserve">
<style type="text/css">
	.st0{fill:#E83C3A;}
	.st1{fill:#DFD9C9;}
</style>
<rect x="-22.45" y="-22.45" class="st0" width="1124.89" height="1124.89"/>
<g>
	<path class="st1" d="M241.56,540.93c-19.57,0-36.07,13.08-41.27,30.96c3.51-13.8,14.94-39.5,47.14-39.5
		c53.73,0,45.66-79.3,45.66-79.3c-2.8,4.37-8.54,5.38-54.59,5.38c-30.93,0-38.11,23.2-39.58,37.65v-37.6H134.7v137.16
		c0,11.55-3.49,22.29-9.45,31.23h26.62c24.17,0,44.07-18.23,46.74-41.69c0.69,23.14,19.65,41.69,42.96,41.69
		c23.74,0,42.99-19.25,42.99-42.99C284.55,560.18,265.3,540.93,241.56,540.93z"/>
	<g>
		<g>
			<g>
				<path class="st1" d="M387.81,518.16h-4.32c-14.35,0-28.35,10.03-28.35,26.8v49.1h-8.64v-83.51h8.3v14.18
					c6.05-9.68,16.08-14.69,27.66-14.69c2.25,0,4.5,0.52,5.36,0.52V518.16z"/>
				<path class="st1" d="M400.95,554.3c1.04,19.54,15.56,33.37,34.41,33.37c11.06,0,20.4-4.32,27.84-13.14l5.53,5.71
					c-8.3,9.68-20.23,15.56-33.54,15.56c-23.69,0.52-43.74-19.71-43.22-43.4c-0.52-23.69,19.19-44.09,42.19-43.57
					c20.57,0,37.34,14.87,37.34,37.17c0,3.63-0.17,6.4-0.69,8.3H400.95z M462.5,546.52c0.69-18.15-12.62-29.74-28.7-29.74
					c-8.47,0-15.56,2.77-21.61,8.47c-6.05,5.53-9.68,12.62-10.89,21.27H462.5z"/>
				<path class="st1" d="M567.79,464.39v129.67h-8.3v-16.94c-6.22,11.58-19.54,18.67-34.06,18.67c-23.34,0-41.49-19.36-41.49-43.4
					c0-24.38,17.63-43.57,41.49-43.57c14.35,0,27.32,6.92,33.71,17.98v-62.42H567.79z M526.29,516.95
					c-19.19,0-33.37,15.22-33.37,35.27c0,19.88,14.18,35.44,33.37,35.44c17.29,0,32.85-11.41,32.85-35.27
					C559.14,528.36,543.58,516.95,526.29,516.95z"/>
				<path class="st1" d="M628.47,595.79c-14.52,0-27.84-7.26-34.06-18.5v16.77h-8.3V464.39h8.64v62.42
					c6.4-11.07,19.36-17.98,33.71-17.98c23.34,0,41.49,19.19,41.49,43.57C669.96,576.43,651.81,595.79,628.47,595.79z M627.6,516.95
					c-17.29,0-32.85,11.41-32.85,35.44c0,23.86,15.56,35.27,32.85,35.27c19.19,0,33.37-15.56,33.37-35.44
					C660.97,532.17,646.8,516.95,627.6,516.95z"/>
				<path class="st1" d="M687.94,554.3c1.04,19.54,15.56,33.37,34.41,33.37c11.07,0,20.4-4.32,27.84-13.14l5.53,5.71
					c-8.3,9.68-20.23,15.56-33.54,15.56c-23.69,0.52-43.74-19.71-43.22-43.4c-0.52-23.69,19.19-44.09,42.19-43.57
					c20.57,0,37.34,14.87,37.34,37.17c0,3.63-0.17,6.4-0.69,8.3H687.94z M749.49,546.52c0.69-18.15-12.62-29.74-28.7-29.74
					c-8.47,0-15.56,2.77-21.61,8.47c-6.05,5.53-9.68,12.62-10.89,21.27H749.49z"/>
				<path class="st1" d="M815.19,518.16h-4.32c-14.35,0-28.35,10.03-28.35,26.8v49.1h-8.64v-83.51h8.3v14.18
					c6.05-9.68,16.08-14.69,27.66-14.69c2.25,0,4.5,0.52,5.36,0.52V518.16z"/>
				<path class="st1" d="M865.32,518.16H861c-14.35,0-28.35,10.03-28.35,26.8v49.1H824v-83.51h8.3v14.18
					c6.05-9.68,16.08-14.69,27.66-14.69c2.25,0,4.49,0.52,5.36,0.52V518.16z"/>
				<path class="st1" d="M954.01,510.56l-41.67,97.16c-6.05,13.66-14.18,19.19-26.11,19.19c-3.98,0-7.95-0.52-11.76-1.56v-7.61
					c3.63,0.87,7.26,1.21,10.55,1.21c8.82,0,15.04-3.8,19.36-14.35l5.36-12.28l-35.79-81.78h9.51l30.95,71.92l30.25-71.92H954.01z"
					/>
			</g>
		</g>
		<g>
			<g>
				<path class="st1" d="M946.23,593.76c-4.7,0-8.53-3.82-8.53-8.53c0-4.7,3.82-8.53,8.53-8.53s8.53,3.82,8.53,8.53
					C954.75,589.94,950.93,593.76,946.23,593.76 M946.23,577.64c-4.19,0-7.59,3.41-7.59,7.59c0,4.19,3.41,7.59,7.59,7.59
					s7.59-3.41,7.59-7.59C953.82,581.04,950.41,577.64,946.23,577.64"/>
				<path class="st1" d="M943.45,580.08c0.67-0.12,1.64-0.21,2.54-0.21c1.41,0,2.34,0.27,2.96,0.84c0.5,0.45,0.8,1.15,0.8,1.96
					c0,1.33-0.85,2.23-1.92,2.6v0.05c0.78,0.27,1.25,1,1.49,2.07c0.34,1.43,0.58,2.42,0.79,2.81h-1.37
					c-0.17-0.3-0.39-1.17-0.67-2.45c-0.3-1.41-0.86-1.94-2.07-1.99h-1.25v4.43h-1.32V580.08z M944.77,584.74h1.35
					c1.41,0,2.31-0.77,2.31-1.95c0-1.32-0.96-1.9-2.36-1.9c-0.64,0-1.08,0.05-1.31,0.11V584.74z"/>
			</g>
		</g>
	</g>
</g>
</svg>
